<svg width="64" height="64" viewBox="0 0 56 72" fill="none" xmlns="http://www.w3.org/2000/svg">
  <path d="M10.335 0.88L6.234 8.31H0.136V14.99H2.469L4.858 26.88H1.126L6.061 48.71L9.226 48.68L12.408 64.54H42.533L42.744 63.48L45.713 48.68L48.723 48.71L53.645 26.88H50.081L52.455 14.99H55.016V8.31H48.538L44.421 0.88L10.335 0.88ZM12.119 3.015H42.665L45.262 7.74H9.502L12.119 3.015ZM2.831 10.435H52.297V12.88H2.831V10.435ZM4.362 29.002H50.428L46.455 46.554L27.363 46.397L8.334 46.554L4.362 29.002Z" fill="currentColor" fill-opacity="0.8"/>
</svg>
