<svg width="64" height="64" viewBox="0 0 64 68" fill="none" xmlns="http://www.w3.org/2000/svg">
  <path fill-rule="evenodd" clip-rule="evenodd" d="M12.7 0.755C12.18 0.755 11.68 0.884 11.25 1.126C10.83 1.368 10.5 1.711 10.31 2.112L5.98 11.185H55.44L51.12 2.112C50.93 1.711 50.6 1.368 50.17 1.126C49.75 0.884 49.25 0.755 48.73 0.755H12.7ZM10.15 59.413L6.27 38.25H55.16L51.27 59.413C51.18 59.923 50.87 60.388 50.41 60.724C49.94 61.06 49.35 61.245 48.73 61.245H12.7C12.08 61.245 11.49 61.06 11.02 60.724C10.55 60.388 10.25 59.923 10.15 59.413ZM5.57 16.582H55.86C58.95 16.582 61.45 18.405 61.45 20.652V28.783C61.45 31.03 58.94 32.845 55.86 32.845H5.57C2.48 32.845 -0.02 31.03 -0.02 28.783V20.652C-0.02 18.405 2.49 16.582 5.57 16.582Z" fill="currentColor" fill-opacity="0.8"/>
</svg>
