<svg width="64" height="64" viewBox="0 0 72 72" fill="none" xmlns="http://www.w3.org/2000/svg">
  <path d="M56.85 14.026H36.27V3.736H29.41V14.026H8.83C3.16 14.026 -1.46 18.643 -1.46 24.316V58.616C-1.46 62.399 1.62 65.476 5.4 65.476H60.28C64.06 65.476 67.14 62.399 67.14 58.616V24.316C67.14 18.643 62.52 14.026 56.85 14.026ZM8.83 20.886H56.85C57.76 20.886 58.63 21.247 59.28 21.891C59.92 22.534 60.28 23.406 60.28 24.316L60.28 35.018C57.21 35.8 55.24 37.535 53.71 38.9C51.97 40.444 50.82 41.466 48.26 41.466C45.71 41.466 44.56 40.444 42.82 38.904C40.78 37.089 37.99 34.606 32.82 34.606C27.66 34.606 24.87 37.089 22.83 38.904C21.09 40.447 19.94 41.466 17.39 41.466C14.84 41.466 13.69 40.447 11.96 38.904C10.43 37.539 8.47 35.8 5.4 35.018V24.316C5.4 23.406 5.76 22.534 6.4 21.891C7.05 21.247 7.92 20.886 8.83 20.886ZM5.4 58.616V42.447C6.05 42.869 6.68 43.387 7.4 44.028C9.44 45.843 12.23 48.326 17.39 48.326C22.55 48.326 25.34 45.843 27.38 44.028C29.12 42.485 30.27 41.466 32.82 41.466C35.38 41.466 36.53 42.488 38.27 44.028C40.31 45.843 43.1 48.326 48.26 48.326C53.43 48.326 56.23 45.843 58.27 44.028C58.99 43.383 59.62 42.862 60.28 42.437L60.29 58.616H5.4Z" fill="currentColor" fill-opacity="0.8"/>
</svg>
