<svg width="64" height="64" viewBox="0 0 72 72" fill="none" xmlns="http://www.w3.org/2000/svg">
  <path d="M58.576 22.361H1.981C1.299 22.361 0.645 22.632 0.162 23.114C-0.32 23.597 -0.591 24.251 -0.591 24.934V40.369C-0.584 44.748 0.353 49.076 2.157 53.067C3.96 57.058 6.59 60.621 9.872 63.521H1.981C1.299 63.521 0.645 63.792 0.162 64.275C-0.32 64.757 -0.591 65.411 -0.591 66.094C-0.591 66.776 -0.32 67.43 0.162 67.913C0.645 68.395 1.299 68.666 1.981 68.666H58.576C59.259 68.666 59.913 68.395 60.395 67.913C60.878 67.43 61.149 66.776 61.149 66.094C61.149 65.411 60.878 64.757 60.395 64.275C59.913 63.792 59.259 63.521 58.576 63.521H50.685C54.625 60.029 57.613 55.593 59.367 50.63C62.635 50.428 65.703 48.989 67.946 46.604C70.188 44.22 71.438 41.07 71.439 37.796V35.224C71.439 31.812 70.084 28.54 67.672 26.128C65.259 23.716 61.988 22.361 58.576 22.361ZM66.294 37.796C66.293 39.46 65.754 41.08 64.757 42.413C63.76 43.745 62.359 44.72 60.763 45.192C61.018 43.597 61.147 41.984 61.149 40.369V27.95C62.653 28.482 63.956 29.467 64.877 30.769C65.798 32.072 66.293 33.628 66.294 35.224V37.796ZM27.706 14.643V4.353C27.706 3.671 27.977 3.017 28.46 2.534C28.942 2.052 29.597 1.781 30.279 1.781C30.961 1.781 31.615 2.052 32.098 2.534C32.58 3.017 32.851 3.671 32.851 4.353V14.643C32.851 15.326 32.58 15.98 32.098 16.462C31.615 16.945 30.961 17.216 30.279 17.216C29.597 17.216 28.942 16.945 28.46 16.462C27.977 15.98 27.706 15.326 27.706 14.643ZM37.996 14.643V4.353C37.996 3.671 38.267 3.017 38.75 2.534C39.232 2.052 39.887 1.781 40.569 1.781C41.251 1.781 41.905 2.052 42.388 2.534C42.87 3.017 43.141 3.671 43.141 4.353V14.643C43.141 15.326 42.87 15.98 42.388 16.462C41.905 16.945 41.251 17.216 40.569 17.216C39.887 17.216 39.232 16.945 38.75 16.462C38.267 15.98 37.996 15.326 37.996 14.643ZM17.416 14.643V4.353C17.416 3.671 17.687 3.017 18.17 2.534C18.652 2.052 19.307 1.781 19.989 1.781C20.671 1.781 21.325 2.052 21.808 2.534C22.29 3.017 22.561 3.671 22.561 4.353V14.643C22.561 15.326 22.29 15.98 21.808 16.462C21.325 16.945 20.671 17.216 19.989 17.216C19.307 17.216 18.652 16.945 18.17 16.462C17.687 15.98 17.416 15.326 17.416 14.643Z" fill="currentColor" fill-opacity="0.8"/>
</svg>
