<svg width="22" height="21" viewBox="0 0 22 21" xmlns="http://www.w3.org/2000/svg">
<path d="M10.3904 0.278611C10.5738 -0.0930121 11.1037 -0.0930128 11.2871 0.27861L14.2491 6.28029C14.322 6.42787 14.4627 6.53015 14.6256 6.55381L21.2488 7.51623C21.659 7.57582 21.8227 8.07981 21.5259 8.36908L16.7333 13.0407C16.6155 13.1556 16.5617 13.3211 16.5895 13.4833L17.7209 20.0798C17.791 20.4882 17.3622 20.7997 16.9954 20.6069L11.0714 17.4924C10.9258 17.4159 10.7517 17.4159 10.6061 17.4924L4.68206 20.6069C4.31525 20.7997 3.88653 20.4882 3.95658 20.0798L5.08797 13.4833C5.11579 13.3211 5.06202 13.1556 4.94417 13.0407L0.151543 8.36908C-0.145216 8.07981 0.0185386 7.57582 0.428649 7.51623L7.0519 6.55381C7.21476 6.53015 7.35554 6.42787 7.42837 6.28029L10.3904 0.278611Z"/>
</svg>
