<svg width="119" height="38" viewBox="0 0 119 38" fill="none" xmlns="http://www.w3.org/2000/svg">
<path d="M4.896 23.16C4.896 24.6533 5.28 25.8587 6.048 26.776C6.816 27.672 7.82933 28.12 9.088 28.12C10.304 28.12 11.296 27.6613 12.064 26.744C12.832 25.8267 13.216 24.6213 13.216 23.128C13.216 21.656 12.8427 20.4827 12.096 19.608C11.3493 18.7333 10.3573 18.296 9.12 18.296C7.88267 18.296 6.86933 18.744 6.08 19.64C5.29067 20.5147 4.896 21.688 4.896 23.16ZM16.8 7.832V28.152C16.8 29.1973 16.8533 30.1467 16.96 31H13.408C13.3013 30.4027 13.248 29.7307 13.248 28.984C12.864 29.688 12.2667 30.264 11.456 30.712C10.6453 31.16 9.71733 31.384 8.672 31.384C6.45333 31.384 4.65067 30.6053 3.264 29.048C1.87733 27.4907 1.184 25.528 1.184 23.16C1.184 20.8773 1.87733 18.9467 3.264 17.368C4.672 15.7893 6.45333 15 8.608 15C9.84533 15 10.8373 15.224 11.584 15.672C12.352 16.12 12.8853 16.6427 13.184 17.24V7.832H16.8ZM20.6275 26.776C20.6275 25.4533 21.0542 24.3973 21.9075 23.608C22.7822 22.7973 23.9235 22.2853 25.3315 22.072L29.3315 21.464C30.0995 21.3573 30.4835 20.984 30.4835 20.344C30.4835 19.64 30.2382 19.0747 29.7475 18.648C29.2568 18.2 28.5208 17.976 27.5395 17.976C26.6008 17.976 25.8542 18.2427 25.2995 18.776C24.7448 19.288 24.4248 19.96 24.3395 20.792L20.9475 20.024C21.0968 18.616 21.7688 17.4213 22.9635 16.44C24.1582 15.4373 25.6728 14.936 27.5075 14.936C29.7688 14.936 31.4328 15.48 32.4995 16.568C33.5875 17.656 34.1315 19.0533 34.1315 20.76V28.504C34.1315 29.528 34.1955 30.36 34.3235 31H30.8675C30.7608 30.68 30.7075 30.0187 30.7075 29.016C29.6835 30.6587 28.0835 31.48 25.9075 31.48C24.3288 31.48 23.0488 31.0213 22.0675 30.104C21.1075 29.1653 20.6275 28.056 20.6275 26.776ZM26.6115 28.568C27.7635 28.568 28.6915 28.2587 29.3955 27.64C30.1208 27 30.4835 25.9653 30.4835 24.536V23.832L26.4195 24.44C25.0328 24.6747 24.3395 25.3787 24.3395 26.552C24.3395 27.1067 24.5422 27.5867 24.9475 27.992C25.3528 28.376 25.9075 28.568 26.6115 28.568ZM42.3308 22.008V31H38.6188V15.416H42.2348V17.496C42.7254 16.6427 43.3761 16.0133 44.1868 15.608C45.0188 15.1813 45.9041 14.968 46.8428 14.968C48.6774 14.968 50.0748 15.544 51.0348 16.696C51.9948 17.848 52.4748 19.3307 52.4748 21.144V31H48.7628V21.784C48.7628 20.7387 48.5068 19.9067 47.9948 19.288C47.4828 18.648 46.6721 18.328 45.5628 18.328C44.5388 18.328 43.7388 18.68 43.1628 19.384C42.6081 20.0667 42.3308 20.9413 42.3308 22.008ZM55.8738 31.864L59.2977 30.968C59.4258 31.9493 59.8418 32.7493 60.5458 33.368C61.2711 34.008 62.1564 34.328 63.2018 34.328C66.1458 34.328 67.6178 32.7707 67.6178 29.656V28.024C67.2551 28.6853 66.6791 29.2293 65.8898 29.656C65.1004 30.0827 64.1724 30.296 63.1058 30.296C61.0151 30.296 59.2871 29.5813 57.9218 28.152C56.5778 26.7227 55.9058 24.9093 55.9058 22.712C55.9058 20.6 56.5778 18.808 57.9218 17.336C59.2658 15.864 60.9938 15.128 63.1058 15.128C65.3884 15.128 66.9244 15.8853 67.7138 17.4V15.416H71.2978V29.528C71.2978 31.832 70.6471 33.7413 69.3458 35.256C68.0444 36.792 66.0284 37.56 63.2978 37.56C61.2924 37.56 59.6071 37.016 58.2418 35.928C56.8764 34.84 56.0871 33.4853 55.8738 31.864ZM63.7138 27.128C64.9084 27.128 65.8684 26.7333 66.5938 25.944C67.3404 25.1333 67.7138 24.056 67.7138 22.712C67.7138 21.3893 67.3404 20.3333 66.5938 19.544C65.8471 18.7333 64.8871 18.328 63.7138 18.328C62.5191 18.328 61.5378 18.7333 60.7698 19.544C60.0231 20.3333 59.6498 21.3893 59.6498 22.712C59.6498 24.056 60.0231 25.1333 60.7698 25.944C61.5164 26.7333 62.4978 27.128 63.7138 27.128ZM79.5175 31H75.8375V15.416H79.5175V31ZM75.9655 11.64C75.4962 11.1707 75.2615 10.6053 75.2615 9.944C75.2615 9.28267 75.4962 8.71733 75.9655 8.248C76.4348 7.75733 77.0002 7.512 77.6615 7.512C78.3442 7.512 78.9202 7.74667 79.3895 8.216C79.8588 8.68533 80.0935 9.26133 80.0935 9.944C80.0935 10.6053 79.8588 11.1707 79.3895 11.64C78.9202 12.1093 78.3442 12.344 77.6615 12.344C77.0002 12.344 76.4348 12.1093 75.9655 11.64ZM88.0183 31H84.3063V7.832H88.0183V31ZM91.7838 26.776C91.7838 25.4533 92.2104 24.3973 93.0638 23.608C93.9384 22.7973 95.0798 22.2853 96.4878 22.072L100.488 21.464C101.256 21.3573 101.64 20.984 101.64 20.344C101.64 19.64 101.394 19.0747 100.904 18.648C100.413 18.2 99.6771 17.976 98.6958 17.976C97.7571 17.976 97.0104 18.2427 96.4558 18.776C95.9011 19.288 95.5811 19.96 95.4958 20.792L92.1038 20.024C92.2531 18.616 92.9251 17.4213 94.1198 16.44C95.3144 15.4373 96.8291 14.936 98.6638 14.936C100.925 14.936 102.589 15.48 103.656 16.568C104.744 17.656 105.288 19.0533 105.288 20.76V28.504C105.288 29.528 105.352 30.36 105.48 31H102.024C101.917 30.68 101.864 30.0187 101.864 29.016C100.84 30.6587 99.2398 31.48 97.0638 31.48C95.4851 31.48 94.2051 31.0213 93.2238 30.104C92.2638 29.1653 91.7838 28.056 91.7838 26.776ZM97.7678 28.568C98.9198 28.568 99.8478 28.2587 100.552 27.64C101.277 27 101.64 25.9653 101.64 24.536V23.832L97.5758 24.44C96.1891 24.6747 95.4958 25.3787 95.4958 26.552C95.4958 27.1067 95.6984 27.5867 96.1038 27.992C96.5091 28.376 97.0638 28.568 97.7678 28.568Z" fill="#505050"/>
<path d="M107.128 4.848H104.356V12H102.916V4.848L100.156 4.848V3.492L107.128 3.492V4.848ZM117.669 12L116.241 12V5.736L113.589 12H112.341L109.713 5.76V12H108.309V3.492L110.229 3.492L112.989 9.984L115.713 3.492H117.669V12Z" fill="#505050"/>
</svg>
