<svg width="74" height="70" viewBox="0 0 74 70" fill="none" xmlns="http://www.w3.org/2000/svg">
<path d="M47.08 33.8606C45.2414 33.8606 43.1798 33.2929 40.9103 32.1581C40.6353 32.02 40.4233 31.7806 40.3193 31.4912C40.227 31.232 38.0908 25.0876 41.4855 20.5437C43.9528 17.2407 48.5917 15.753 55.2812 16.1257C55.8914 16.1593 56.3777 16.6483 56.4078 17.2598C56.4317 17.7345 56.9249 28.9392 51.2114 32.6698C49.9966 33.4639 48.6163 33.8606 47.08 33.8606ZM42.4349 30.2395C45.5752 31.7122 48.0855 31.8565 49.905 30.6684C53.2928 28.4556 54.0254 21.8871 54.0432 18.4685C48.8017 18.3405 45.2332 19.5218 43.4008 21.974C41.2202 24.894 42.0676 28.9105 42.4349 30.2395Z" fill="#A1613B"/>
<path d="M28.798 18.1976C26.6782 18.1976 24.2329 17.7434 22.0988 16.1805C18.4791 13.5279 16.8156 8.47789 17.1535 1.17135C17.1822 0.560537 17.6665 0.0694218 18.2773 0.0331696C18.7944 0.00375734 31.034 -0.649467 35.1524 5.53257C37.0703 8.41017 36.913 12.179 34.6866 16.7366C34.5511 17.0136 34.3145 17.2277 34.0251 17.3337C33.8644 17.3932 31.6202 18.1976 28.798 18.1976ZM33.6127 16.2119H33.6243H33.6127ZM19.5064 2.38546C19.4032 8.2378 20.7486 12.2269 23.5113 14.2516C26.8191 16.675 31.3356 15.6449 32.7556 15.2311C34.3801 11.7057 34.5176 8.89103 33.1633 6.85817C30.6461 3.07973 23.2644 2.341 19.5064 2.38546Z" fill="#A1613B"/>
<path d="M38.134 48.8109C38.0963 48.8109 38.0587 48.8088 38.0204 48.8054C37.3836 48.7452 36.9068 48.1946 36.939 47.5551C37.0094 46.1488 37.1298 44.8149 37.2933 43.5509C37.7906 35.0911 37.5341 15.3904 25.0784 9.94029C24.4737 9.67558 24.1974 8.97105 24.4621 8.36571C24.7261 7.76173 25.4327 7.48608 26.0366 7.7501C33.3767 10.9615 37.9944 18.9568 39.3877 30.8715C39.5129 31.9392 39.6066 32.9919 39.6764 34.0173C42.9569 25.7278 47.9754 22.7989 48.2743 22.6313C48.8489 22.3064 49.578 22.513 49.9023 23.0869C50.2244 23.6614 50.022 24.3885 49.4494 24.7127C49.3229 24.7866 41.6272 29.405 39.6955 43.6474C39.5485 46.0838 39.3364 47.6371 39.3166 47.7794C39.2338 48.3759 38.7242 48.8109 38.134 48.8109Z" fill="#A1613B"/>
<path d="M36.4342 70C33.8787 70 31.3247 69.485 28.9594 68.4562L17.6494 63.5396C13.5577 61.7598 9.23133 60.6326 4.79077 60.1887L1.07662 59.8172C0.465123 59.7564 0 59.242 0 58.6278V46.9771C0 46.7186 0.0841326 46.4668 0.239402 46.2603C0.517107 45.8889 7.17384 37.1924 17.3423 39.4551C23.0612 40.726 27.6659 43.1043 30.5217 44.8758C32.5949 46.1618 35.0251 46.841 37.5498 46.841H48.8598C50.8092 46.841 52.5227 47.8725 53.481 49.4197L63.2219 38.1972C65.1104 35.6753 68.2001 34.1308 71.4347 34.1308H72.1625C72.5667 34.1308 72.9429 34.3346 73.1632 34.6725C73.3841 35.0104 73.419 35.4379 73.2569 35.8073L64.4469 55.8295C62.5208 60.2085 58.5987 63.5163 53.9563 64.6771L52.4064 65.0642L43.3898 68.671C41.1709 69.5581 38.8022 70 36.4342 70ZM2.39128 57.5457L5.0288 57.8097C9.71629 58.2782 14.2834 59.4691 18.6036 61.3474L29.9129 66.264C33.8897 67.9931 38.4759 68.0609 42.5027 66.45L51.5931 62.8139C51.6437 62.794 51.695 62.7776 51.7477 62.7646L53.3763 62.3569C57.3073 61.374 60.6281 58.5737 62.2581 54.8664L70.2938 36.6042C68.2363 36.9072 66.343 38.016 65.0817 39.6972L54.2908 52.1338C54.2922 52.1803 54.2929 52.2262 54.2929 52.2734C54.2929 55.2686 51.8558 57.7057 48.8605 57.7057H33.0805C31.0292 57.7057 29.0018 58.0347 27.0558 58.6832L26.6167 57.5682L26.2453 56.4321L26.3061 56.4123C28.4902 55.6845 30.7713 55.3144 33.0805 55.3144H48.8605C50.537 55.3144 51.9023 53.9498 51.9023 52.2727C51.9023 50.5955 50.5377 49.2309 48.8605 49.2309H37.5505C34.5799 49.2309 31.7139 48.4272 29.2624 46.9067C26.5647 45.2329 22.2158 42.9873 16.8251 41.7882C9.12462 40.0803 3.5835 45.9901 2.39196 47.3998V57.5457H2.39128Z" fill="#594646"/>
</svg>
