<svg width="70" height="70" viewBox="0 0 70 70" fill="none" xmlns="http://www.w3.org/2000/svg">
<path d="M58.7891 12.5781C59.5441 12.5781 60.1562 11.966 60.1562 11.2109C60.1562 10.4559 59.5441 9.84375 58.7891 9.84375C58.034 9.84375 57.4219 10.4559 57.4219 11.2109C57.4219 11.966 58.034 12.5781 58.7891 12.5781Z" fill="#A1613B"/>
<path d="M61.9467 14.8127C61.3248 15.2409 61.1678 16.0921 61.596 16.714C65.3051 22.1013 67.2656 28.4244 67.2656 35C67.2656 43.1685 64.2563 50.8674 58.7651 56.8315L40.7153 38.7816L48.7609 30.736L49.7272 31.7023C50.2614 32.2362 51.1267 32.2361 51.6608 31.7023C52.1947 31.1685 52.1947 30.3028 51.6608 29.7687C51.221 29.3289 49.5234 27.6313 48.7613 26.8692L54.5619 21.0686L55.5282 22.035C56.0623 22.5688 56.9276 22.5687 57.4618 22.035C57.9957 21.5011 57.9957 20.6354 57.4618 20.1013L49.7278 12.3673C49.1937 11.8336 48.3283 11.8336 47.7941 12.3673C47.2603 12.9012 47.2603 13.7669 47.7941 14.3009L48.7605 15.2672L42.9599 21.0678C42.7055 20.8134 40.7915 18.8995 40.0604 18.1683C39.5263 17.6345 38.6609 17.6345 38.1268 18.1683C37.5929 18.7022 37.5929 19.5679 38.1268 20.1019L39.0931 21.0682L31.0475 29.1138L13.1685 11.235C19.1337 5.74383 26.8326 2.73438 35 2.73438C41.5754 2.73438 47.8986 4.69492 53.286 8.4041C53.9081 8.83217 54.759 8.67521 55.1873 8.05342C55.6155 7.43148 55.4585 6.58027 54.8367 6.15207C48.991 2.12734 42.1317 0 35 0C15.6726 0 0 15.6405 0 35C0 54.3568 15.6382 70 35 70C54.3423 70 70 54.3449 70 35C70 27.8682 67.8727 21.0087 63.8481 15.1633C63.4199 14.5414 62.5687 14.3845 61.9467 14.8127ZM50.6939 17.201L52.6281 19.1352L46.8275 24.9357L44.8934 23.0016L50.6939 17.201ZM41.0266 23.0018L46.8273 28.8025L42.1595 33.4703L41.1917 32.5031C40.6578 31.9695 39.792 31.9698 39.2582 32.5038C38.7245 33.0378 38.7248 33.9035 39.2589 34.4373L40.2261 35.4037L38.7816 36.8482L32.9809 31.0475L41.0266 23.0018ZM35.2263 40.4034L34.2591 39.4362C33.7251 38.9025 32.8597 38.9025 32.3255 39.4362C31.7916 39.9701 31.7916 40.8358 32.3255 41.3699L33.2927 42.337L31.359 44.2706C21.7952 34.7066 28.7279 41.6395 25.5583 38.4699L31.0472 32.9811L36.8479 38.7818L35.2263 40.4034ZM23.6251 44.2708L25.5583 42.3369L27.4922 44.2708L25.5583 46.204L23.6251 44.2708ZM2.73438 35C2.73438 26.8316 5.74383 19.1324 11.2345 13.1679L29.1138 31.0475L22.6581 37.5032C22.1245 38.0371 22.1244 38.9029 22.6581 39.4368L23.6247 40.4034L20.7248 43.3043C20.191 43.8383 20.1912 44.7037 20.7249 45.2378L21.6914 46.2042L14.9239 52.9717C14.3901 53.5056 14.3901 54.3713 14.9239 54.9053C15.4581 55.4392 16.3234 55.439 16.8576 54.9053L23.625 48.1379L24.5915 49.1043C25.1255 49.6381 25.9908 49.6382 26.5249 49.1045L29.4258 46.2045L30.3924 47.1711C30.9261 47.7047 31.7919 47.7049 32.3261 47.1711L38.7818 40.7154L56.8315 58.7651C50.8663 64.2562 43.1674 67.2656 35 67.2656C17.2087 67.2656 2.73438 52.7913 2.73438 35Z" fill="#594646"/>
<mask id="mask0_1_1673" style="mask-type:alpha" maskUnits="userSpaceOnUse" x="12" y="9" width="50" height="51">
<path d="M28.4375 31.7188L31.377 28.7793L34.5898 15.4492L48.2617 9.16016L55.3711 15.4492L61.25 21.875L58.3789 32.9492L40.8105 38.6914L38.7598 40.7422L34.5898 49.9707L18.9355 59.3359L12.4414 54.0039L15.6543 24.4727L28.4375 31.7188Z" fill="#C4C4C4"/>
</mask>
<g mask="url(#mask0_1_1673)">
<path d="M58.7891 12.5781C59.5441 12.5781 60.1562 11.966 60.1562 11.2109C60.1562 10.4559 59.5441 9.84375 58.7891 9.84375C58.034 9.84375 57.4219 10.4559 57.4219 11.2109C57.4219 11.966 58.034 12.5781 58.7891 12.5781Z" fill="#A1613B"/>
<path d="M61.9467 14.8127C61.3248 15.2409 61.1678 16.0921 61.596 16.714C65.3051 22.1013 67.2656 28.4244 67.2656 35C67.2656 43.1685 64.2563 50.8674 58.7651 56.8315L40.7153 38.7816L48.7609 30.736L49.7272 31.7023C50.2614 32.2362 51.1267 32.2361 51.6608 31.7023C52.1947 31.1685 52.1947 30.3028 51.6608 29.7687C51.221 29.3289 49.5234 27.6313 48.7613 26.8692L54.5619 21.0686L55.5282 22.035C56.0623 22.5688 56.9276 22.5687 57.4618 22.035C57.9957 21.5011 57.9957 20.6354 57.4618 20.1013L49.7278 12.3673C49.1937 11.8336 48.3283 11.8336 47.7941 12.3673C47.2603 12.9012 47.2603 13.7669 47.7941 14.3009L48.7605 15.2672L42.9599 21.0678C42.7055 20.8134 40.7915 18.8995 40.0604 18.1683C39.5263 17.6345 38.6609 17.6345 38.1268 18.1683C37.5929 18.7022 37.5929 19.5679 38.1268 20.1019L39.0931 21.0682L31.0475 29.1138L13.1685 11.235C19.1337 5.74383 26.8326 2.73438 35 2.73438C41.5754 2.73438 47.8986 4.69492 53.286 8.4041C53.9081 8.83217 54.759 8.67521 55.1873 8.05342C55.6155 7.43148 55.4585 6.58027 54.8367 6.15207C48.991 2.12734 42.1317 0 35 0C15.6726 0 0 15.6405 0 35C0 54.3568 15.6382 70 35 70C54.3423 70 70 54.3449 70 35C70 27.8682 67.8727 21.0087 63.8481 15.1633C63.4199 14.5414 62.5687 14.3845 61.9467 14.8127ZM50.6939 17.201L52.6281 19.1352L46.8275 24.9357L44.8934 23.0016L50.6939 17.201ZM41.0266 23.0018L46.8273 28.8025L42.1595 33.4703L41.1917 32.5031C40.6578 31.9695 39.792 31.9698 39.2582 32.5038C38.7245 33.0378 38.7248 33.9035 39.2589 34.4373L40.2261 35.4037L38.7816 36.8482L32.9809 31.0475L41.0266 23.0018ZM35.2263 40.4034L34.2591 39.4362C33.7251 38.9025 32.8597 38.9025 32.3255 39.4362C31.7916 39.9701 31.7916 40.8358 32.3255 41.3699L33.2927 42.337L31.359 44.2706C21.7952 34.7066 28.7279 41.6395 25.5583 38.4699L31.0472 32.9811L36.8479 38.7818L35.2263 40.4034ZM23.6251 44.2708L25.5583 42.3369L27.4922 44.2708L25.5583 46.204L23.6251 44.2708ZM2.73438 35C2.73438 26.8316 5.74383 19.1324 11.2345 13.1679L29.1138 31.0475L22.6581 37.5032C22.1245 38.0371 22.1244 38.9029 22.6581 39.4368L23.6247 40.4034L20.7248 43.3043C20.191 43.8383 20.1912 44.7037 20.7249 45.2378L21.6914 46.2042L14.9239 52.9717C14.3901 53.5056 14.3901 54.3713 14.9239 54.9053C15.4581 55.4392 16.3234 55.439 16.8576 54.9053L23.625 48.1379L24.5915 49.1043C25.1255 49.6381 25.9908 49.6382 26.5249 49.1045L29.4258 46.2045L30.3924 47.1711C30.9261 47.7047 31.7919 47.7049 32.3261 47.1711L38.7818 40.7154L56.8315 58.7651C50.8663 64.2562 43.1674 67.2656 35 67.2656C17.2087 67.2656 2.73438 52.7913 2.73438 35Z" fill="#A1613B"/>
</g>
</svg>
