<svg width="59" height="70" viewBox="0 0 59 70" fill="none" xmlns="http://www.w3.org/2000/svg">
<path d="M55.2209 24.3368C53.9838 23.4927 53.5572 21.9006 54.2065 20.5509C54.3519 20.0248 56.2902 17.5487 54.6061 14.6316C52.9172 11.7062 49.7987 12.1524 49.2801 12.0179C47.7867 11.9055 46.6211 10.74 46.5087 9.24651C46.3716 8.71823 46.8121 5.60461 43.8949 3.92052C40.9697 2.23165 38.4921 4.17728 37.9756 4.32015C36.626 4.96956 35.0338 4.54286 34.1897 3.3057C33.8069 2.91674 32.6317 0 29.2634 0C25.8855 0 24.7129 2.92385 24.3369 3.3057C23.4928 4.543 21.9007 4.96942 20.551 4.32015C20.0249 4.17468 17.549 2.2363 14.6318 3.92052C11.7065 5.60954 12.1527 8.72794 12.0181 9.24664C11.9057 10.74 10.7402 11.9057 9.24664 12.0181C8.71837 12.1552 5.60475 11.7147 3.92052 14.6318C2.23165 17.557 4.17728 20.0346 4.32015 20.551C4.96956 21.9006 4.543 23.4928 3.3057 24.3369C2.91674 24.7197 0 25.8951 0 29.2634C0 32.6413 2.92385 33.814 3.3057 34.1899C4.54286 35.034 4.96942 36.626 4.32015 37.9757C4.17468 38.5018 2.23643 40.9779 3.92052 43.8951C5.60954 46.8204 8.72794 46.3742 9.24664 46.5088C10.2746 46.5862 11.1472 47.1628 11.6279 48.0017L5.45874 61.1575C5.11243 61.8962 5.21073 62.7531 5.71536 63.3942C6.21998 64.0353 7.03017 64.3317 7.82943 64.1684L14.3587 62.8332C14.3991 62.8245 14.4392 62.8436 14.459 62.8794L17.7837 68.8933C18.6311 70.4261 20.8584 70.3503 21.6013 68.7663L23.5825 64.5413C23.823 64.0286 23.6022 63.4181 23.0895 63.1776C22.5771 62.9371 21.9663 63.1579 21.7258 63.6706L19.7447 67.8956C19.7362 67.9137 19.7203 67.9473 19.6632 67.9494C19.6054 67.9491 19.588 67.9186 19.5783 67.9011L16.2536 61.8873C15.7978 61.0626 14.8709 60.6356 13.9478 60.8242L7.41859 62.1594C7.39753 62.1636 7.36212 62.171 7.32644 62.1256C7.29076 62.0803 7.30621 62.0477 7.31523 62.0281L12.2618 51.4794C12.5955 52.7867 13.4411 53.9191 14.6316 54.6064C17.5572 56.2955 20.0344 54.3496 20.5509 54.2067C21.9004 53.5575 23.4927 53.9839 24.3367 55.2212L25.0866 56.3203C25.1033 56.3449 25.1218 56.3678 25.1389 56.392L23.7703 59.3106C23.5298 59.8233 23.7506 60.4337 24.2633 60.6742C24.7727 60.9132 25.385 60.697 25.627 60.1812L26.7241 57.8414C27.4843 58.283 28.3568 58.527 29.2631 58.527C30.1693 58.527 31.0419 58.2831 31.8021 57.8414L36.9251 68.7664C37.6687 70.352 39.8961 70.4248 40.7425 68.8935L44.0672 62.8797C44.087 62.8439 44.1274 62.825 44.1677 62.8335L50.6969 64.1687C51.4967 64.3324 52.3064 64.0354 52.8109 63.3945C53.3156 62.7535 53.4139 61.8964 53.0676 61.1578L46.8985 48.0018C47.3792 47.1629 48.2517 46.5864 49.2798 46.509C49.8081 46.3719 52.9217 46.8124 54.6058 43.8953C56.2947 40.97 54.3491 38.4924 54.2062 37.976C53.5568 36.6265 53.9835 35.0342 55.2205 34.1901C55.6095 33.8073 58.5263 32.632 58.5263 29.2637C58.5266 25.8854 55.6029 24.7127 55.2209 24.3368ZM51.2 62.1253C51.1645 62.1706 51.1292 62.1635 51.108 62.1591L44.5788 60.8239C43.6557 60.6355 42.7289 61.0623 42.273 61.887L38.9482 67.901C38.9386 67.9183 38.9217 67.9488 38.8634 67.9491C38.8063 67.9472 38.7904 67.9135 38.782 67.8954L33.3877 56.3918C33.4048 56.3676 33.4233 56.3446 33.44 56.32L34.1899 55.2209C35.034 53.9838 36.626 53.5571 37.9757 54.2065C38.5018 54.3519 40.9781 56.2903 43.8951 54.6061C45.0855 53.9188 45.9311 52.7864 46.2647 51.4791L51.2113 62.028C51.2204 62.0474 51.2357 62.0801 51.2 62.1253ZM54.0652 32.4959C51.9841 33.9159 51.2664 36.5945 52.3587 38.8648C52.5634 39.5215 53.8994 41.0178 52.8301 42.8698C51.7621 44.7197 49.8095 44.31 49.126 44.464C46.6137 44.653 44.6528 46.6138 44.4637 49.1263C44.3126 49.7973 44.7215 51.7611 42.8695 52.8304C41.0196 53.8984 39.5334 52.5674 38.8645 52.359C36.5941 51.2665 33.9158 51.9843 32.4957 54.0655C32.042 54.5211 31.4559 56.4763 29.2631 56.4763C27.0656 56.4763 26.526 54.5629 26.0305 54.0654C25.0563 52.6375 23.4898 51.8514 21.869 51.8514C19.0906 51.8514 18.0535 54.214 15.6569 52.8304C14.783 52.3258 14.2384 51.4594 14.1627 50.4532L14.0629 49.1263C13.8739 46.614 11.9131 44.653 9.40059 44.464C8.72288 44.3114 6.76562 44.7217 5.69649 42.8698C4.62831 41.02 5.95953 39.5338 6.16789 38.8649C7.26041 36.5946 6.54264 33.9162 4.46138 32.4961C3.95074 32.0251 2.05063 31.4018 2.05063 29.2634C2.05063 27.1273 3.9465 26.5058 4.46138 26.0308C6.54264 24.6109 7.26041 21.9324 6.16789 19.662C5.96323 19.0053 4.62708 17.5089 5.69649 15.6571C6.76453 13.8071 8.71714 14.2168 9.40059 14.0629C11.9129 13.8739 13.8739 11.9131 14.0629 9.40059C14.214 8.72958 13.8051 6.76562 15.6571 5.69649C17.5071 4.62859 18.9931 5.95953 19.662 6.16803C21.9275 7.25808 24.6079 6.54701 26.0308 4.46152C26.4972 3.95593 27.125 2.05077 29.2634 2.05077C31.3995 2.05077 32.0211 3.94664 32.4961 4.46152C33.916 6.54277 36.5949 7.26041 38.8649 6.16803C39.5216 5.96323 41.018 4.62722 42.8698 5.69649C44.7197 6.76453 44.3101 8.71714 44.464 9.40059C44.653 11.9129 46.6138 13.8739 49.1263 14.0629C49.804 14.2155 51.7611 13.8052 52.8304 15.6571C53.8984 17.507 52.5674 18.9931 52.3589 19.662C51.2664 21.9324 51.9841 24.6109 54.0654 26.0308C54.571 26.4972 56.4763 27.125 56.4763 29.2634C56.4761 31.3993 54.5801 32.021 54.0652 32.4959Z" fill="#594646"/>
<path d="M29.2634 9.2666C18.2372 9.2666 9.26672 18.2371 9.26672 29.2632C9.26672 40.2894 18.2372 49.26 29.2634 49.26C34.0984 49.26 38.7653 47.5114 42.4043 44.3363C46.0079 41.192 48.3687 36.8672 49.0519 32.1582C49.1333 31.5978 48.7448 31.0776 48.1844 30.9964C47.6242 30.9155 47.104 31.3035 47.0226 31.8639C45.7472 40.6544 38.1746 47.2094 29.2634 47.2094C19.3679 47.2094 11.3174 39.1589 11.3174 29.2634C11.3174 19.3679 19.3679 11.3172 29.2634 11.3172C38.4258 11.3172 46.0936 18.1739 47.0996 27.2663C47.1619 27.8292 47.6681 28.2343 48.2315 28.1726C48.7943 28.1103 49.2001 27.6036 49.1378 27.0408C48.0167 16.9079 39.4726 9.2666 29.2634 9.2666Z" fill="#594646"/>
<path d="M42.5461 26.2298C42.7166 25.2869 41.8915 24.4612 40.949 24.6328C39.812 24.8386 36.9836 25.4679 34.2964 26.9891C33.611 22.8858 31.4307 19.369 30.4347 17.9328C29.868 17.1161 28.6587 17.1162 28.092 17.9329C27.096 19.3692 24.9156 22.886 24.2303 26.9891C21.5431 25.4679 18.7147 24.8386 17.578 24.6328C16.6327 24.4622 15.8099 25.2885 15.9806 26.2298C16.6538 29.9496 18.4023 34.1294 21.3355 36.5843H17.9851C17.4188 36.5843 16.9599 37.0434 16.9599 37.6095C16.9599 38.1757 17.419 38.6348 17.9851 38.6348H40.5418C41.1081 38.6348 41.5671 38.1757 41.5671 37.6095C41.5671 37.0434 41.108 36.5843 40.5418 36.5843H37.1911C40.1248 34.129 41.8728 29.9489 42.5461 26.2298ZM29.2633 19.881C30.2906 21.5143 32.0538 24.7632 32.3968 28.2582C31.0122 29.3504 29.9619 30.6205 29.2633 32.04C28.5646 30.6206 27.5144 29.3504 26.1297 28.2582C26.4726 24.7634 28.2361 21.5141 29.2633 19.881ZM18.2099 26.8599C23.4867 28.109 28.2376 31.1571 28.238 36.5614V36.5843H25.6188C20.7456 35.2248 18.8314 29.4465 18.2099 26.8599ZM30.2885 36.5841V36.5613C30.2889 31.1657 35.0262 28.112 40.3166 26.8598C39.6953 29.446 37.7812 35.2245 32.9078 36.5841H30.2885Z" fill="#A1613B"/>
</svg>
