<svg width="55" height="45" viewBox="0 0 55 45" fill="none" xmlns="http://www.w3.org/2000/svg">
<path d="M48.1515 11.7871C44.4615 10.5161 39.4274 9.61361 33.8833 9.22232C33.8833 9.21921 33.8835 9.21621 33.8835 9.21311C33.8835 6.79532 32.3677 4.39307 31.4641 3.17625C30.911 2.43118 28.9863 0 27.45 0C25.9137 0 23.989 2.43107 23.4356 3.17625C22.5322 4.39296 21.0164 6.79521 21.0164 9.21311C21.0164 9.21621 21.0166 9.21932 21.0166 9.22243C15.4685 9.61393 10.4308 10.5176 6.74026 11.7899C2.26773 13.3318 0 15.277 0 17.5714C0 24.8979 2.85523 31.7857 8.03996 36.9664C13.2246 42.1469 20.1178 45 27.45 45C34.7822 45 41.6754 42.1469 46.86 36.9664C52.0448 31.7857 54.9 24.8978 54.9 17.5714C54.9 15.2756 52.6295 13.3294 48.1515 11.7871ZM25.0001 4.66993C26.0407 3.21118 27.0515 2.36711 27.45 2.17061C27.8485 2.36711 28.8593 3.21118 29.8999 4.66993C31.0687 6.30825 31.7391 7.96414 31.7391 9.213C31.7391 10.3585 31.2613 11.4913 30.4281 12.3206C29.6173 13.1277 28.5673 13.5715 27.4615 13.5715C27.4563 13.5715 27.451 13.5715 27.4458 13.5715C26.3466 13.5748 25.2864 13.1314 24.4718 12.3206C23.6386 11.4913 23.1608 10.3585 23.1608 9.213C23.1609 7.96425 23.8312 6.30825 25.0001 4.66993ZM7.4397 13.8155C11.0067 12.5859 15.9348 11.7149 21.3863 11.345C21.647 12.0844 22.0399 12.7798 22.5485 13.3896C18.9399 13.5454 15.6505 13.8722 13.0677 14.3386C8.8686 15.0969 7.07695 16.0636 7.07695 17.5714C7.07695 18.3879 7.65051 19.0731 8.78164 19.608C9.55678 19.9745 10.6538 20.3096 12.0426 20.6039C14.7101 21.1692 18.4518 21.578 22.5784 21.7549C22.594 21.7556 22.6096 21.7559 22.6251 21.7559C23.1961 21.7559 23.6709 21.306 23.6956 20.7304C23.721 20.1392 23.2619 19.6394 22.6703 19.614C19.0071 19.4569 15.7414 19.1252 13.226 18.6546C11.0081 18.2398 9.97057 17.8235 9.50585 17.5715C10.0378 17.2831 11.3198 16.7793 14.2601 16.3098C17.339 15.818 21.3649 15.5115 25.6133 15.4439C26.1958 15.6221 26.8036 15.7145 27.4218 15.7145H27.4695C28.0906 15.7145 28.7003 15.6221 29.2838 15.4439C33.535 15.5114 37.5639 15.8183 40.6439 16.3105C43.5812 16.7799 44.8621 17.2831 45.3938 17.5715C44.929 17.8236 43.8914 18.2398 41.6734 18.6547C39.1579 19.1253 35.8919 19.457 32.2287 19.614C31.637 19.6394 31.1779 20.1392 31.2034 20.7304C31.228 21.306 31.7028 21.7559 32.2738 21.7559C32.2893 21.7559 32.3049 21.7556 32.3206 21.7549C36.4473 21.578 40.1892 21.1693 42.8568 20.6039C44.2456 20.3096 45.3429 19.9745 46.118 19.608C47.2495 19.073 47.823 18.3879 47.823 17.5714C47.823 16.0643 46.0327 15.0976 41.8366 14.3395C39.2533 13.8728 35.9622 13.5456 32.3514 13.3897C32.86 12.7799 33.253 12.0845 33.5137 11.345C38.9613 11.7147 43.886 12.5846 47.4527 13.8131C51.3624 15.1596 52.7555 16.6375 52.7555 17.5714C52.7555 20.2558 43.1285 24 27.45 24C11.7715 24 2.14453 20.2557 2.14453 17.5714C2.14453 16.6383 3.53558 15.1615 7.4397 13.8155ZM27.45 42.8571C14.7596 42.8571 4.22226 33.4742 2.41839 21.2869C3.84214 22.2783 5.88159 23.1595 8.50467 23.9053C13.5796 25.3482 20.3079 26.1429 27.45 26.1429C34.5921 26.1429 41.3204 25.3482 46.3953 23.9053C49.0184 23.1595 51.0579 22.2783 52.4816 21.2869C50.6777 33.4742 40.1404 42.8571 27.45 42.8571Z" fill="#A1613B"/>
<path d="M39.7148 29.5211H39.714C39.1218 29.5211 38.6421 30.0009 38.6421 30.5925C38.6421 31.1842 39.1226 31.664 39.7148 31.664C40.307 31.664 40.787 31.1842 40.787 30.5925C40.787 30.0009 40.307 29.5211 39.7148 29.5211Z" fill="#A1613B"/>
<path d="M31.351 36.4854H31.3503C30.7581 36.4854 30.2783 36.9651 30.2783 37.5568C30.2783 38.1484 30.7588 38.6282 31.351 38.6282C31.9432 38.6282 32.4233 38.1484 32.4233 37.5568C32.4233 36.9651 31.9432 36.4854 31.351 36.4854Z" fill="#A1613B"/>
<path d="M15.8032 29.5211H15.8024C15.2102 29.5211 14.7305 30.0009 14.7305 30.5925C14.7305 31.1842 15.211 31.664 15.8032 31.664C16.3954 31.664 16.8754 31.1842 16.8754 30.5925C16.8754 30.0009 16.3954 29.5211 15.8032 29.5211Z" fill="#A1613B"/>
<path d="M27.4496 21.857C28.0419 21.857 28.5219 21.3772 28.5219 20.7855C28.5219 20.1939 28.0419 19.7141 27.4496 19.7141H27.4488C26.8566 19.7141 26.377 20.1939 26.377 20.7855C26.377 21.3772 26.8575 21.857 27.4496 21.857Z" fill="#A1613B"/>
</svg>
