<svg width="36" height="45" viewBox="0 0 36 45" fill="none" xmlns="http://www.w3.org/2000/svg">
<path d="M11.6666 9.30829C8.27422 9.30829 5.51428 12.0682 5.51428 15.4606C5.51428 18.853 8.27422 21.613 11.6666 21.613C15.059 21.613 17.819 18.853 17.819 15.4606C17.819 12.0682 15.059 9.30829 11.6666 9.30829ZM11.6666 19.8552C9.24348 19.8552 7.27209 17.8838 7.27209 15.4606C7.27209 13.0375 9.24348 11.0661 11.6666 11.0661C14.0898 11.0661 16.0612 13.0375 16.0612 15.4606C16.0612 17.8838 14.0898 19.8552 11.6666 19.8552Z" fill="#A1613B"/>
<path d="M22.5459 0.983145C21.9805 0.35833 21.1729 0 20.3302 0H2.98818C2.14558 0 1.33804 0.35833 0.772638 0.983145C0.20715 1.60787 -0.0690907 2.44714 0.0147569 3.28562L2.94441 32.5818C3.02044 33.3421 3.38571 34.0051 3.92484 34.468V42.3633C3.92484 43.8172 5.10767 45 6.56155 45H16.7569C18.2108 45 19.3936 43.8172 19.3936 42.3633V34.468C19.9327 34.0051 20.2981 33.3421 20.374 32.5818L21.9153 17.1681C21.9637 16.6852 21.6112 16.2544 21.1283 16.2062C20.6445 16.1565 20.2146 16.5103 20.1663 16.9932L18.625 32.4069C18.5685 32.9721 18.0975 33.3984 17.5293 33.3984H5.78926C5.22113 33.3984 4.75013 32.9721 4.69353 32.4069L2.05048 5.97656H9.9754C10.4607 5.97656 10.8543 5.58299 10.8543 5.09766C10.8543 4.61232 10.4607 4.21875 9.9754 4.21875H1.8747L1.76387 3.1108C1.72889 2.76047 1.83972 2.42376 2.07597 2.16264C2.31222 1.9016 2.63618 1.75781 2.98818 1.75781H20.3301C20.6822 1.75781 21.0062 1.9016 21.2425 2.16264C21.4788 2.42367 21.5895 2.76038 21.5546 3.11062L20.7894 10.7626C20.741 11.2455 21.0935 11.6763 21.5764 11.7245C22.0601 11.7725 22.4901 11.4204 22.5384 10.9375L23.3036 3.28553C23.3874 2.44705 23.1113 1.60787 22.5459 0.983145ZM5.68274 35.1562H5.78926H17.5293H17.6359V39.7199H14.259C13.5294 39.1136 12.6198 38.7836 11.6593 38.7836C10.6988 38.7836 9.78916 39.1136 9.05958 39.7199H5.68274V35.1562ZM5.68274 41.4777H9.39884C9.63192 41.4777 9.85543 41.3851 10.0203 41.2203C10.458 40.7825 11.0402 40.5413 11.6592 40.5413C12.2782 40.5413 12.8604 40.7824 13.2981 41.2203C13.463 41.3851 13.6865 41.4777 13.9196 41.4777H17.6357V42.3633C17.6359 42.8479 17.2415 43.2422 16.757 43.2422H6.56164C6.07701 43.2422 5.68274 42.8479 5.68274 42.3633V41.4777Z" fill="#A1613B"/>
<path d="M21.975 13.3288C21.8115 13.1645 21.5857 13.0713 21.3536 13.0713C21.1225 13.0713 20.8957 13.1645 20.7323 13.3288C20.5689 13.4923 20.4747 13.7183 20.4747 13.9502C20.4747 14.1813 20.5688 14.4081 20.7323 14.5716C20.8957 14.735 21.1225 14.8291 21.3536 14.8291C21.5848 14.8291 21.8115 14.7351 21.975 14.5716C22.1393 14.4072 22.2325 14.1813 22.2325 13.9502C22.2325 13.719 22.1393 13.4923 21.975 13.3288Z" fill="#A1613B"/>
<path d="M14.9845 24.0739H8.34875C7.86342 24.0739 7.46985 24.4675 7.46985 24.9528C7.46985 25.4382 7.86342 25.8317 8.34875 25.8317H14.9845C15.4698 25.8317 15.8634 25.4382 15.8634 24.9528C15.8634 24.4675 15.4698 24.0739 14.9845 24.0739Z" fill="#A1613B"/>
<path d="M13.0509 27.5895H10.2823C9.79702 27.5895 9.40344 27.9831 9.40344 28.4684C9.40344 28.9538 9.79702 29.3474 10.2823 29.3474H13.0509C13.5362 29.3474 13.9298 28.9538 13.9298 28.4684C13.9298 27.9831 13.5362 27.5895 13.0509 27.5895Z" fill="#A1613B"/>
<path d="M34.0562 29.8412C29.9577 24.7204 31.0283 21.985 31.1015 21.8153C31.2978 21.4792 31.24 21.0697 30.972 20.7857C30.7016 20.4994 30.2641 20.4447 29.9154 20.6274C29.7304 20.7244 25.3741 23.0427 24.6243 26.6187C24.2825 28.2485 24.7272 29.8469 25.9456 31.3694C29.9598 36.3849 29.1541 38.76 29.076 38.9567C28.8685 39.2841 28.916 39.6854 29.1723 39.9789C29.3369 40.1675 29.5747 40.2613 29.8175 40.2613C29.958 40.2613 30.1001 40.2299 30.2305 40.1673C30.4089 40.0817 34.6082 38.0318 35.3843 34.6287C35.7526 33.0132 35.3059 31.4025 34.0562 29.8412ZM33.6714 34.2337C33.3363 35.7113 32.0139 36.9195 30.941 37.6842C30.8196 36.1168 30.0388 33.6705 27.318 30.271C26.4321 29.1641 26.1134 28.0887 26.3438 26.9835C26.6721 25.4086 28.0393 24.0764 29.1615 23.2182C29.1678 23.3975 29.1815 23.5873 29.2042 23.7873C29.4515 25.9574 30.6223 28.3638 32.6838 30.9397C33.5932 32.0759 33.9162 33.1533 33.6714 34.2337Z" fill="#A1613B"/>
<path d="M14.5078 4.47627C14.3444 4.31279 14.1177 4.21875 13.8865 4.21875C13.6554 4.21875 13.4286 4.31271 13.2651 4.47627C13.1017 4.63983 13.0076 4.8665 13.0076 5.09766C13.0076 5.32881 13.1016 5.55557 13.2651 5.71896C13.4286 5.88243 13.6554 5.97656 13.8865 5.97656C14.1177 5.97656 14.3444 5.88252 14.5078 5.71896C14.6713 5.55557 14.7654 5.32881 14.7654 5.09766C14.7654 4.8665 14.6714 4.63975 14.5078 4.47627Z" fill="#A1613B"/>
</svg>
