<svg width="31" height="45" viewBox="0 0 31 45" fill="none" xmlns="http://www.w3.org/2000/svg">
<path d="M22.9937 15.0596C23.8975 15.9634 25.0848 16.4153 26.272 16.4153C27.4591 16.4153 28.6464 15.9634 29.5503 15.0596C31.1726 13.4373 31.3567 10.8308 29.9787 8.99648L26.9747 4.99816C26.8087 4.77721 26.5484 4.64722 26.2721 4.64722C25.9957 4.64722 25.7354 4.77721 25.5694 4.99816L22.5654 8.99648C21.1872 10.8308 21.3715 13.4373 22.9937 15.0596ZM23.9707 10.0523L26.272 6.98924L28.5732 10.0523C29.4288 11.1911 29.3145 12.8094 28.3073 13.8166C27.185 14.9389 25.359 14.9389 24.2367 13.8166C23.2295 12.8094 23.1152 11.1911 23.9707 10.0523Z" fill="#A1613B"/>
<path d="M30.0292 33.0761H26.345C24.1029 33.0761 22.0933 34.0849 20.7421 35.6709V21.9727C20.7421 18.0698 18.5747 14.6641 15.3808 12.8945V9.4043C15.3808 8.09587 14.3162 7.03125 13.0077 7.03125V5.27344H17.7649C18.2503 5.27344 18.6438 4.87986 18.6438 4.39453V0.878906C18.6438 0.393574 18.2503 0 17.7649 0H7.99805C6.54416 0 5.36133 1.18283 5.36133 2.63672C5.36133 4.00166 6.4038 5.12754 7.73438 5.26025V7.03125C6.42586 7.03125 5.36133 8.09578 5.36133 9.4043V12.8945C2.1673 14.6641 0 18.0699 0 21.9727V28.5791C0 29.0645 0.393486 29.458 0.878906 29.458C1.36433 29.458 1.75781 29.0645 1.75781 28.5791V21.9727C1.75781 17.2233 5.62175 13.3594 10.3711 13.3594C15.1204 13.3594 18.9844 17.2233 18.9844 21.9727V35.6709C17.6332 34.0849 15.6235 33.0761 13.3816 33.0761H9.69724C9.21182 33.0761 8.81833 33.4697 8.81833 33.955V37.6394C8.81833 39.8814 9.82705 41.891 11.4131 43.2422H5.18555C3.29546 43.2422 1.75781 41.7045 1.75781 39.8145V36.4893C1.75781 36.004 1.36433 35.6104 0.878906 35.6104C0.393486 35.6104 0 36.004 0 36.4893V39.8145C0 42.6738 2.3262 45 5.18555 45H23.5476C27.6063 45 30.9082 41.6981 30.9082 37.6394V33.955C30.9081 33.4697 30.5147 33.0761 30.0292 33.0761ZM7.11914 2.63672C7.11914 2.15209 7.51342 1.75781 7.99805 1.75781H16.8861V3.51562H7.99805C7.51342 3.51562 7.11914 3.12135 7.11914 2.63672ZM9.49219 5.27344H11.25V7.03125H9.49219V5.27344ZM10.3711 11.6016C9.23564 11.6016 8.14254 11.7856 7.11914 12.1243V9.4043C7.11914 9.06513 7.39512 8.78906 7.73438 8.78906H13.0078C13.3471 8.78906 13.623 9.06513 13.623 9.4043V12.1243C12.5996 11.7856 11.5065 11.6016 10.3711 11.6016ZM10.5761 37.6394V34.834H13.3815C16.4709 34.834 18.9843 37.3474 18.9843 40.4367V41.9991L16.2158 39.2307C15.8726 38.8876 15.3161 38.8876 14.9729 39.2307C14.6297 39.5739 14.6296 40.1304 14.9729 40.4737L17.7413 43.2422H16.1789C13.0896 43.2422 10.5761 40.7288 10.5761 37.6394ZM29.1503 37.6394C29.1503 40.7288 26.6369 43.2422 23.5475 43.2422H21.9852L24.7537 40.4737C25.0969 40.1305 25.0969 39.574 24.7537 39.2307C24.4105 38.8876 23.854 38.8876 23.5107 39.2307L20.7423 41.9992V40.4367C20.7423 37.3474 23.2557 34.834 26.3451 34.834H29.1505V37.6394H29.1503Z" fill="#A1613B"/>
<path d="M10.3713 23.9159C10.1393 23.9159 9.91343 24.0099 9.74995 24.1735C9.5856 24.3369 9.49243 24.5636 9.49243 24.7948C9.49243 25.026 9.5856 25.2527 9.74995 25.4162C9.91343 25.5797 10.1402 25.6737 10.3713 25.6737C10.6025 25.6737 10.8284 25.5797 10.9927 25.4162C11.1562 25.2527 11.2502 25.026 11.2502 24.7948C11.2502 24.5636 11.1562 24.3369 10.9927 24.1735C10.8292 24.01 10.6025 23.9159 10.3713 23.9159Z" fill="#A1613B"/>
<path d="M15.6974 21.7196C15.1378 20.7504 14.1734 20.1546 13.0936 20.0791C12.4883 19.1817 11.4902 18.6446 10.3711 18.6445C10.371 18.6445 10.3711 18.6445 10.3711 18.6445C9.25198 18.6445 8.25381 19.1818 7.64842 20.0791C6.56868 20.1547 5.60426 20.7505 5.04466 21.7196C4.48506 22.6888 4.45131 23.8218 4.92583 24.7947C4.4514 25.7677 4.48506 26.9006 5.04466 27.8698C5.60426 28.839 6.5685 29.4348 7.64842 29.5103C8.25372 30.4077 9.25181 30.9449 10.3709 30.9449C11.4899 30.9449 12.4881 30.4076 13.0935 29.5103C14.1732 29.4347 15.1377 28.8389 15.6973 27.8698C16.2569 26.9007 16.2906 25.7677 15.8162 24.7947C16.2907 23.8218 16.257 22.6888 15.6974 21.7196ZM14.0842 25.314C14.4549 25.8205 14.4889 26.4474 14.1751 26.991C13.8612 27.5346 13.3015 27.8186 12.6773 27.7508C12.2966 27.7104 11.9326 27.9194 11.778 28.27C11.5248 28.8443 10.9988 29.1872 10.3712 29.1873C9.74347 29.1873 9.21753 28.8444 8.96423 28.27C8.82264 27.9488 8.50544 27.7456 8.16038 27.7456C8.12883 27.7456 8.09692 27.7474 8.06502 27.7508C7.44064 27.8181 6.88104 27.5346 6.56719 26.991C6.25333 26.4473 6.28734 25.8205 6.65815 25.314C6.88447 25.0048 6.88447 24.5847 6.65815 24.2756C6.28734 23.7691 6.25342 23.1422 6.56719 22.5986C6.88104 22.055 7.44064 21.7709 8.06502 21.8388C8.44559 21.88 8.80963 21.6702 8.96423 21.3196C9.21744 20.7453 9.74347 20.4024 10.3711 20.4023C10.9988 20.4023 11.5247 20.7452 11.778 21.3196C11.9326 21.6702 12.2969 21.8795 12.6773 21.8388C13.3016 21.7707 13.8612 22.055 14.1751 22.5986C14.4889 23.1423 14.455 23.7691 14.0842 24.2756C13.8579 24.5847 13.8579 25.0048 14.0842 25.314Z" fill="#A1613B"/>
<path d="M0.87915 33.4136C1.1103 33.4136 1.33706 33.3195 1.50054 33.1561C1.66401 32.9917 1.75806 32.7658 1.75806 32.5347C1.75806 32.3035 1.66401 32.0768 1.50054 31.9133C1.33706 31.7489 1.1103 31.6558 0.87915 31.6558C0.647119 31.6558 0.42124 31.7489 0.257764 31.9133C0.0934082 32.0768 0.000244141 32.3027 0.000244141 32.5347C0.000244141 32.7658 0.0934082 32.9926 0.257764 33.1561C0.42124 33.3195 0.647119 33.4136 0.87915 33.4136Z" fill="#A1613B"/>
</svg>
