<svg width="45" height="45" viewBox="0 0 45 45" fill="none" xmlns="http://www.w3.org/2000/svg">
<path d="M43.9439 1.53738C43.1078 0.560303 41.8908 0 40.6049 0H23.1536C21.8676 0 20.6506 0.560303 19.8146 1.53738C18.9786 2.51446 18.613 3.80338 18.8118 5.07384L21.4281 21.7969H15.7845C15.299 21.7969 14.9055 22.1904 14.9055 22.6758C14.9055 23.1612 15.299 23.5547 15.7845 23.5547H25.4882C26.9421 23.5547 28.1249 24.7375 28.1249 26.1914V29.5312H1.75772V26.1914C1.75772 24.7375 2.94056 23.5547 4.39444 23.5547H7.8743C8.35972 23.5547 8.7532 23.1612 8.7532 22.6758C8.7532 22.1904 8.35972 21.7969 7.8743 21.7969H4.39453C1.97139 21.7969 0 23.7683 0 26.1914V37.4854C0 41.629 3.37104 45 7.51465 45H39.3232C39.8086 45 40.2021 44.6065 40.2021 44.1211V35.4004L44.9466 5.07375C45.1454 3.80338 44.7798 2.51437 43.9439 1.53738ZM23.1536 1.75781H40.605C41.3765 1.75781 42.1067 2.09399 42.6083 2.68022C42.9463 3.07503 43.1553 3.55491 43.2199 4.05905H20.5386C20.6031 3.555 20.8123 3.07512 21.1502 2.68022C21.6518 2.09399 22.382 1.75781 23.1536 1.75781ZM25.4882 21.7969H23.2073L20.7073 5.81686H43.0512L38.5711 34.4531H29.8827V26.1914C29.8827 23.7683 27.9114 21.7969 25.4882 21.7969ZM1.75781 37.4854V31.2891H28.125V37.4854C28.125 40.6597 25.5425 43.2422 22.3682 43.2422H7.51465C4.3403 43.2422 1.75781 40.6597 1.75781 37.4854ZM38.4442 43.2422H27.1912C28.8352 41.8626 29.8827 39.7944 29.8827 37.4854V36.2109H38.4442V43.2422Z" fill="#A1613B"/>
<path d="M19.2773 34.4531H10.6055C10.12 34.4531 9.72656 34.8466 9.72656 35.332C9.72656 35.8175 10.12 36.2109 10.6055 36.2109H19.2773C19.7627 36.2109 20.1562 35.8175 20.1562 35.332C20.1562 34.8466 19.7627 34.4531 19.2773 34.4531Z" fill="#A1613B"/>
<path d="M17.6221 38.3203H12.2607C11.7753 38.3203 11.3818 38.7138 11.3818 39.1992C11.3818 39.6846 11.7753 40.0781 12.2607 40.0781H17.6221C18.1075 40.0781 18.501 39.6846 18.501 39.1992C18.501 38.7138 18.1075 38.3203 17.6221 38.3203Z" fill="#A1613B"/>
<path d="M31.8793 17.7701C33.7208 17.7701 35.2191 16.2719 35.2191 14.4303C35.2191 12.5887 33.7208 11.0905 31.8793 11.0905C30.0377 11.0905 28.5394 12.5887 28.5394 14.4303C28.5394 16.2719 30.0377 17.7701 31.8793 17.7701ZM31.8793 12.8483C32.7516 12.8483 33.4613 13.558 33.4613 14.4303C33.4613 15.3026 32.7516 16.0123 31.8793 16.0123C31.007 16.0123 30.2972 15.3026 30.2972 14.4303C30.2972 13.558 31.007 12.8483 31.8793 12.8483Z" fill="#A1613B"/>
<path d="M31.7823 9.33203C32.0136 9.33203 32.2403 9.23887 32.4037 9.07451C32.5672 8.91104 32.6613 8.68428 32.6613 8.45312C32.6613 8.22197 32.5673 7.99521 32.4037 7.83174C32.2402 7.66826 32.0136 7.57422 31.7823 7.57422C31.5503 7.57422 31.3244 7.66826 31.1602 7.83174C30.9967 7.99521 30.9034 8.22197 30.9034 8.45312C30.9034 8.68428 30.9967 8.91104 31.1602 9.07451C31.3244 9.23887 31.5503 9.33203 31.7823 9.33203Z" fill="#A1613B"/>
<path d="M31.7823 19.5273C31.5503 19.5273 31.3244 19.6214 31.1602 19.7849C30.9967 19.9483 30.9034 20.1751 30.9034 20.4062C30.9034 20.6383 30.9967 20.8642 31.1602 21.0276C31.3244 21.192 31.5512 21.2852 31.7823 21.2852C32.0136 21.2852 32.2394 21.192 32.4037 21.0276C32.5672 20.8642 32.6613 20.6374 32.6613 20.4062C32.6613 20.1751 32.5673 19.9483 32.4037 19.7849C32.2402 19.6214 32.0135 19.5273 31.7823 19.5273Z" fill="#A1613B"/>
<path d="M37.1365 15.0511C37.3008 15.2146 37.5266 15.3086 37.7587 15.3086C37.9899 15.3086 38.2166 15.2146 38.3801 15.0511C38.5435 14.8876 38.6376 14.6608 38.6376 14.4297C38.6376 14.1985 38.5436 13.9718 38.3801 13.8083C38.2157 13.6448 37.9899 13.5508 37.7587 13.5508C37.5275 13.5508 37.3008 13.6448 37.1365 13.8083C36.973 13.9718 36.8798 14.1985 36.8798 14.4297C36.8798 14.6608 36.973 14.8876 37.1365 15.0511Z" fill="#A1613B"/>
<path d="M26.4272 13.8083C26.2628 13.6448 26.037 13.5508 25.8058 13.5508C25.5738 13.5508 25.3479 13.6448 25.1836 13.8083C25.0201 13.9718 24.9269 14.1985 24.9269 14.4297C24.9269 14.6608 25.0201 14.8876 25.1836 15.0511C25.3479 15.2154 25.5746 15.3086 25.8058 15.3086C26.037 15.3086 26.2628 15.2154 26.4272 15.0511C26.5907 14.8876 26.6847 14.6608 26.6847 14.4297C26.6847 14.1985 26.5907 13.9718 26.4272 13.8083Z" fill="#A1613B"/>
<path d="M36.0081 17.7778C35.7769 17.7778 35.5501 17.871 35.3868 18.0354C35.2233 18.1988 35.1292 18.4247 35.1292 18.6567C35.1292 18.8879 35.2232 19.1146 35.3868 19.2781C35.5501 19.4416 35.7769 19.5356 36.0081 19.5356C36.2392 19.5356 36.466 19.4416 36.6294 19.2781C36.7929 19.1138 36.887 18.8879 36.887 18.6567C36.887 18.4247 36.793 18.1988 36.6294 18.0354C36.466 17.871 36.2392 17.7778 36.0081 17.7778Z" fill="#A1613B"/>
<path d="M27.5555 9.3252C27.3244 9.3252 27.0976 9.41924 26.9342 9.58271C26.7708 9.74619 26.6766 9.97295 26.6766 10.2041C26.6766 10.4353 26.7707 10.662 26.9342 10.8255C27.0976 10.989 27.3244 11.083 27.5555 11.083C27.7867 11.083 28.0135 10.989 28.1769 10.8255C28.3413 10.662 28.4344 10.4353 28.4344 10.2041C28.4344 9.97295 28.3413 9.74619 28.1769 9.58271C28.0135 9.41924 27.7867 9.3252 27.5555 9.3252Z" fill="#A1613B"/>
<path d="M27.5555 17.7778C27.3244 17.7778 27.0976 17.871 26.9342 18.0354C26.7708 18.1988 26.6766 18.4247 26.6766 18.6567C26.6766 18.8879 26.7707 19.1146 26.9342 19.2781C27.0976 19.4416 27.3244 19.5356 27.5555 19.5356C27.7867 19.5356 28.0135 19.4416 28.1769 19.2781C28.3413 19.1138 28.4344 18.8879 28.4344 18.6567C28.4344 18.4256 28.3413 18.1988 28.1769 18.0354C28.0135 17.871 27.7867 17.7778 27.5555 17.7778Z" fill="#A1613B"/>
<path d="M36.0081 11.083C36.2392 11.083 36.466 10.989 36.6294 10.8255C36.7929 10.662 36.887 10.4353 36.887 10.2041C36.887 9.97295 36.793 9.74619 36.6294 9.58271C36.4659 9.41924 36.2392 9.3252 36.0081 9.3252C35.7769 9.3252 35.5501 9.41924 35.3868 9.58271C35.2233 9.74619 35.1292 9.97295 35.1292 10.2041C35.1292 10.4353 35.2232 10.662 35.3868 10.8255C35.5501 10.989 35.7769 11.083 36.0081 11.083Z" fill="#A1613B"/>
<path d="M11.8292 23.5547C12.0604 23.5547 12.2871 23.4606 12.4506 23.2972C12.6141 23.1337 12.7081 22.9069 12.7081 22.6758C12.7081 22.4446 12.6141 22.2179 12.4506 22.0544C12.2871 21.8909 12.0613 21.7969 11.8292 21.7969C11.5981 21.7969 11.3713 21.8909 11.2078 22.0544C11.0444 22.2179 10.9503 22.4446 10.9503 22.6758C10.9503 22.9069 11.0444 23.1337 11.2078 23.2972C11.3713 23.4606 11.5981 23.5547 11.8292 23.5547Z" fill="#A1613B"/>
</svg>
