<svg width="20" height="20" viewBox="0 0 20 20" fill="none" xmlns="http://www.w3.org/2000/svg">
<path d="M12.7454 18.3337V12.3126H14.9894L15.3255 9.70697H12.7454V8.04347C12.7454 7.2891 12.9549 6.77502 14.0366 6.77502L15.4163 6.77441V4.44396C15.1777 4.41221 14.3587 4.34126 13.4058 4.34126C11.4166 4.34126 10.0547 5.55553 10.0547 7.78543V9.70697H7.80489V12.3126H10.0547V18.3337H3.66669C2.56212 18.3337 1.66669 17.4383 1.66669 16.3337L1.66669 3.66675C1.66669 2.56218 2.56212 1.66675 3.66669 1.66675L16.3334 1.66675C17.4379 1.66675 18.3334 2.56218 18.3334 3.66675V16.3337C18.3334 17.4383 17.4379 18.3337 16.3334 18.3337H12.7454Z" fill="#A1613B"/>
</svg>
