<svg width="21" height="20" viewBox="0 0 21 20" fill="none" xmlns="http://www.w3.org/2000/svg">
<path d="M2.43943 4.90591C2.46514 4.66008 2.36829 4.41758 2.17971 4.25258L0.259714 2.00258V1.66675H6.22371L10.8334 11.4959L14.886 1.66675H20.5714V2.00258L18.9291 3.53341C18.7877 3.63841 18.7174 3.81091 18.7466 3.98175V15.2301C18.7174 15.4001 18.7877 15.5726 18.9291 15.6776L20.5329 17.2084V17.5442H12.4654V17.2084L14.1274 15.6401C14.2903 15.4817 14.2903 15.4351 14.2903 15.1926V6.10091L9.67114 17.5076H9.04714L3.66857 6.10091V13.7459C3.624 14.0667 3.73371 14.3909 3.966 14.6226L6.12686 17.1709V17.5076H0V17.1709L2.16086 14.6226C2.39229 14.3901 2.49514 14.0642 2.43943 13.7459V4.90591Z" fill="#A1613B"/>
</svg>
