<svg width="24" height="24" viewBox="0 0 24 24" fill="none" xmlns="http://www.w3.org/2000/svg">
<path d="M7.23108 10.79C8.67108 13.62 10.9911 15.93 13.8211 17.38L16.0211 15.18C16.2911 14.91 16.6911 14.82 17.0411 14.94C18.1611 15.31 19.3711 15.51 20.6111 15.51C21.1611 15.51 21.6111 15.96 21.6111 16.51V20C21.6111 20.55 21.1611 21 20.6111 21C11.2211 21 3.61108 13.39 3.61108 4C3.61108 3.45 4.06108 3 4.61108 3H8.11108C8.66108 3 9.11108 3.45 9.11108 4C9.11108 5.25 9.31108 6.45 9.68108 7.57C9.79108 7.92 9.71108 8.31 9.43108 8.59L7.23108 10.79Z" fill="#A1613B"/>
</svg>
