<svg width="20" height="20" viewBox="0 0 20 20" fill="none" xmlns="http://www.w3.org/2000/svg">
<path d="M18.3334 4.93672C17.7202 5.20895 17.0611 5.39228 16.3695 5.47492C17.0757 5.052 17.6181 4.38186 17.8729 3.58325C17.2125 3.97492 16.4806 4.25964 15.7014 4.41311C15.0785 3.74853 14.1889 3.33325 13.2056 3.33325C10.9979 3.33325 9.37572 5.39297 9.87433 7.53117C7.03335 7.38881 4.51391 6.0277 2.8271 3.95895C1.93127 5.49575 2.36252 7.50617 3.88474 8.52422C3.32502 8.50617 2.79724 8.3527 2.33683 8.09645C2.29933 9.68047 3.43474 11.1624 5.07919 11.4923C4.59794 11.6228 4.07085 11.6534 3.53474 11.5506C3.96946 12.9089 5.23196 13.8971 6.72919 13.9249C5.29169 15.052 3.48058 15.5555 1.66669 15.3416C3.17988 16.3117 4.9778 16.8777 6.90835 16.8777C13.257 16.8777 16.8438 11.5159 16.6271 6.70686C17.2952 6.22422 17.875 5.62214 18.3334 4.93672Z" fill="#A1613B"/>
</svg>
