<svg width="20" height="20" viewBox="0 0 20 20" fill="none" xmlns="http://www.w3.org/2000/svg">
<path fill-rule="evenodd" clip-rule="evenodd" d="M16.2793 4.36032C14.9346 4 9.5661 4 9.5661 4C9.5661 4 4.20827 4 2.86352 4.33972C2.1435 4.53532 1.55061 5.11174 1.34943 5.82206C1 7.12945 1 9.83695 1 9.83695C1 9.83695 1 12.5547 1.34943 13.8415C1.55061 14.5519 2.13291 15.118 2.86352 15.3136C4.21885 15.6636 9.5661 15.6636 9.5661 15.6636C9.5661 15.6636 14.9346 15.6636 16.2793 15.3239C17.0099 15.1283 17.5922 14.5724 17.7828 13.8518C18.1428 12.5547 18.1428 9.84725 18.1428 9.84725C18.1428 9.84725 18.1534 7.12945 17.7828 5.82206C17.5922 5.11174 17.0099 4.54562 16.2793 4.36032ZM7.86133 12.3277V7.33496L12.3192 9.83646L7.86133 12.3277Z" fill="#A1613B"/>
</svg>
