<svg preserveAspectRatio="none" width="100%" height="100%" overflow="visible" style="display: block;" viewBox="0 0 441.132 441.839" fill="none" xmlns="http://www.w3.org/2000/svg">
<g id="Vecs">
<path id="Vector" d="M303.311 348.947C264.087 373.73 217.165 382.719 172.543 369.763C124.999 355.959 79.9008 326.317 64.0449 279.478C48.4442 233.393 68.3415 184.418 96.3511 144.688C122.092 108.175 161.366 86.2061 205.494 78.8393C252.962 70.915 305.202 71.1715 340.48 103.933C376.727 137.593 385.989 190.761 378.583 239.579C371.599 285.616 342.697 324.061 303.311 348.947Z" fill="var(--fill-0, #9747FF)"/>
<path id="Vector_2" d="M369.676 201.993C376.074 247.947 364.909 294.399 334.701 329.704C302.515 367.322 256.911 396.179 207.702 391.303C159.285 386.507 122.877 348.18 98.2367 306.276C75.5922 267.767 71.778 222.928 83.2686 179.69C95.6288 133.18 117.41 85.6958 161.806 67.0715C207.42 47.9359 259.675 61.4287 301.092 88.3111C340.15 113.662 363.251 155.848 369.676 201.993Z" fill="var(--fill-0, #FFCF00)"/>
</g>
</svg>
