<svg width="54" height="36" viewBox="0 0 54 36" fill="none" xmlns="http://www.w3.org/2000/svg">
<path d="M53.55 9.9C53.55 6.9 52.7 4.5 51 2.7C49.2 0.9 46.85 0 43.95 0C40.95 0 38.4 1.05 36.3 3.15C34.1 5.15 33 7.6 33 10.5C33 12.3 33.55 14 34.65 15.6C35.75 17.2 37.4 18.65 39.6 19.95C40.2 20.35 40.65 20.75 40.95 21.15C41.25 21.55 41.4 22 41.4 22.5L34.05 33C34.05 33.4 34.15 33.8 34.35 34.2C34.55 34.5 34.9 34.8 35.4 35.1C40.9 31.6 45.3 27.55 48.6 22.95C51.9 18.25 53.55 13.9 53.55 9.9ZM20.55 9.9C20.55 6.9 19.7 4.5 18 2.7C16.2 0.9 13.85 0 10.95 0C7.95005 0 5.40005 1.05 3.30005 3.15C1.10005 5.15 4.57764e-05 7.6 4.57764e-05 10.5C4.57764e-05 12.3 0.550045 14 1.65005 15.6C2.75005 17.2 4.40005 18.65 6.60004 19.95C7.20005 20.35 7.65005 20.75 7.95005 21.15C8.25005 21.55 8.40005 22 8.40005 22.5L1.05005 33C1.05005 33.4 1.15004 33.8 1.35004 34.2C1.55005 34.5 1.90005 34.8 2.40005 35.1C7.90005 31.6 12.3 27.55 15.6 22.95C18.9 18.25 20.55 13.9 20.55 9.9Z" fill="#A1613B"/>
</svg>
