<svg width="54" height="36" viewBox="0 0 54 36" fill="none" xmlns="http://www.w3.org/2000/svg">
<path d="M0 25.2C0 28.2 0.85 30.6 2.55 32.4C4.35 34.2 6.7 35.1 9.6 35.1C12.6 35.1 15.15 34.05 17.25 31.95C19.45 29.95 20.55 27.5 20.55 24.6C20.55 22.8 20 21.1 18.9 19.5C17.8 17.9 16.15 16.45 13.95 15.15C13.35 14.75 12.9 14.35 12.6 13.95C12.3 13.55 12.15 13.1 12.15 12.6L19.5 2.09997C19.5 1.69998 19.4 1.29998 19.2 0.899979C19 0.599976 18.65 0.299976 18.15 -2.67029e-05C12.65 3.49998 8.25 7.54998 4.95 12.15C1.65 16.85 0 21.2 0 25.2ZM33 25.2C33 28.2 33.85 30.6 35.55 32.4C37.35 34.2 39.7 35.1 42.6 35.1C45.6 35.1 48.15 34.05 50.25 31.95C52.45 29.95 53.55 27.5 53.55 24.6C53.55 22.8 53 21.1 51.9 19.5C50.8 17.9 49.15 16.45 46.95 15.15C46.35 14.75 45.9 14.35 45.6 13.95C45.3 13.55 45.15 13.1 45.15 12.6L52.5 2.09997C52.5 1.69998 52.4 1.29998 52.2 0.899979C52 0.599976 51.65 0.299976 51.15 -2.67029e-05C45.65 3.49998 41.25 7.54998 37.95 12.15C34.65 16.85 33 21.2 33 25.2Z" fill="#A1613B"/>
</svg>
